
<svg version="1.1" id="Warstwa_1" xmlns="http://www.w3.org/2000/svg" xmlns:xlink="http://www.w3.org/1999/xlink" x="0px" y="0px"
	 width="13.2px" height="24.5px" viewBox="0 0 13.2 24.5" style="enable-background:new 0 0 13.2 24.5;" xml:space="preserve">
<path style="fill:#FFFFFF;" d="M0.8,24c-1.5-1.4-0.7-3.6,1.8-4.9c0.8-0.4,1.5-0.6,2.6-0.6c0.7,0,1.4,0.4,1.4,0.4
	c0-4.9,0-14.3,0-18.9C6.9,0,7,0,7.4,0c0,0.3,0,0.5,0,0.7c0,0.2,0,0.4,0,0.5C7.7,3,8.1,3.7,10,5.8c2.4,2.7,3.1,4.3,3.1,6.5
	c0,2-1.8,6.3-2.2,6.2c0.5-1.5,1.3-3.2,1.5-4.5c0.2-1.7-0.4-4-1.5-5.2c-0.9-1-3-1.9-3.5-1.9c0,0,0,9.9,0,13.7c0,0.6-0.6,1.7-0.9,2.1
	C5,24.3,2.1,25.2,0.8,24z"/>
</svg>
