<?xml version="1.0" encoding="utf-8"?>
<!-- Generator: Adobe Illustrator 25.3.1, SVG Export Plug-In . SVG Version: 6.00 Build 0)  -->
<svg version="1.1" id="Layer_1" xmlns="http://www.w3.org/2000/svg" xmlns:xlink="http://www.w3.org/1999/xlink" x="0px" y="0px"
	 viewBox="0 0 78 42.2" style="enable-background:new 0 0 78 42.2;" xml:space="preserve">
<rect x="-20" y="-11.4" style="display:none;fill:none;" width="118" height="65"/>
<path d="M71.8,30h5.8v0.6c-0.2,0-0.4,0-0.6,0h-4v5h3.9c0.3,0,0.5,0,0.7-0.1v0.6c-0.2,0-0.4,0-0.7,0H73v5.3h3.9c0.1,0,0.3,0,0.7-0.1
	V42h-5.7c0-0.2,0-0.4,0-0.6V30.6C71.8,30.4,71.8,30.2,71.8,30 M63.6,35.8h1.2c0.6,0,1.2-0.1,1.7-0.4c0.8-0.5,1.3-1.2,1.3-2.2
	c0-0.4-0.1-0.9-0.3-1.2c-0.2-0.4-0.5-0.7-0.8-0.9c-0.5-0.3-1.2-0.5-2.1-0.5h-1.1L63.6,35.8L63.6,35.8z M63.6,36.3v5.1
	c0,0.2,0,0.4,0.1,0.6h-1.3c0-0.2,0.1-0.4,0.1-0.6V30.6c0-0.2,0-0.4-0.1-0.6h2.7c0.8,0,1.5,0.1,2.1,0.4c0.5,0.2,1,0.6,1.3,1
	c0.4,0.5,0.5,1.1,0.5,1.7c0,0.9-0.3,1.7-1,2.2s-1.6,0.8-2.9,0.9l4.8,5.3c0.1,0.2,0.3,0.3,0.5,0.4h-1.8c-0.1-0.1-0.2-0.3-0.3-0.5
	L63.6,36.3z M53.6,37.4h4.7l-2.4-6.2L53.6,37.4z M53.4,37.9L52,41.5c0,0.1-0.1,0.2-0.1,0.5h-0.7c0.1-0.2,0.2-0.3,0.2-0.5l4.1-11.1
	c0-0.1,0.1-0.2,0.1-0.4h1.1c0,0.1,0,0.2,0.1,0.3l4.3,11.2c0,0.1,0.1,0.3,0.3,0.5H60c0-0.2,0-0.3-0.1-0.5l-1.4-3.6L53.4,37.9
	L53.4,37.9z M44.7,31.3l-2.9,10.2c0,0.1-0.1,0.2-0.1,0.5h-1.1c0-0.2,0-0.4-0.1-0.6l-2.9-10.8c0-0.2-0.1-0.3-0.2-0.5h1.2l0,0
	c0,0,0,0.2,0.1,0.4l2.8,10.1l2.9-10.1c0-0.2,0.1-0.3,0.1-0.4V30h1.2v0.1c0,0.1,0,0.2,0.1,0.4l3,10.1l2.7-10.1c0-0.2,0.1-0.3,0.1-0.4
	h0.6c0,0.1-0.1,0.2-0.2,0.4l-3,11c0,0.1-0.1,0.2-0.1,0.5h-1.1c0-0.2,0-0.4-0.1-0.6L44.7,31.3z M28,30h8.6v0.7
	c-0.4-0.1-0.7-0.1-0.9-0.1h-2.9v10.7c0,0.2,0,0.4,0.1,0.6h-1.3c0-0.2,0.1-0.4,0.1-0.6V30.6h-3c-0.2,0-0.5,0-0.8,0.1L28,30L28,30z
	 M21.1,30h5.7v0.6c-0.2,0-0.4-0.1-0.7-0.1h-3.8v5.1h3.3c0.2,0,0.4,0,0.6-0.1v0.6c-0.2,0-0.4-0.1-0.6-0.1h-3.3v5.3
	c0,0.2,0,0.4,0.1,0.6h-1.3c0-0.2,0.1-0.4,0.1-0.6V30.6C21.2,30.4,21.1,30.2,21.1,30z M13.9,30.5c-1.6,0-2.7,0.5-3.5,1.6
	c-0.7,1-1,2.2-1,3.8c0,1.7,0.3,3,1,4c0.8,1.1,2,1.6,3.6,1.6c1.5,0,2.7-0.5,3.5-1.5c0.7-1,1.1-2.3,1.1-4c0-1.7-0.4-3-1.1-4
	c-0.4-0.5-0.9-0.9-1.5-1.2C15.4,30.6,14.7,30.5,13.9,30.5z M14,29.9c1.8,0,3.3,0.5,4.3,1.6c1.1,1.1,1.6,2.6,1.6,4.5
	c0,2-0.5,3.5-1.6,4.6c-1,1-2.4,1.6-4.3,1.6c-1.9,0-3.4-0.5-4.4-1.6S8.1,38,8.1,36c0-1.9,0.5-3.3,1.6-4.4
	C10.7,30.4,12.1,29.9,14,29.9z M0,41.2l0.3-1c0.3,0.2,0.5,0.4,0.8,0.6c0.6,0.4,1.3,0.6,2.1,0.6c0.9,0,1.6-0.3,2.1-0.8
	c0.4-0.4,0.6-1,0.6-1.6c0-0.8-0.3-1.4-0.9-1.9c-0.3-0.2-1-0.5-2-1s-1.7-0.9-2.1-1.4c-0.5-0.5-0.8-1.2-0.8-1.9c0-0.6,0.2-1.1,0.5-1.6
	c0.7-0.9,1.7-1.4,3.2-1.4c0.9,0,1.7,0.2,2.6,0.6l-0.3,0.8c-0.9-0.5-1.7-0.8-2.5-0.8s-1.4,0.2-1.9,0.7c-0.4,0.4-0.6,0.9-0.6,1.4
	c0,0.5,0.2,1,0.5,1.4c0.4,0.4,1.1,0.8,2.1,1.3c0.7,0.3,1.2,0.6,1.5,0.8c0.3,0.2,0.6,0.4,0.8,0.6c0.6,0.6,0.9,1.3,0.9,2.1
	c0,0.6-0.2,1.2-0.5,1.7C5.7,41.5,4.6,42,3,42C2,42.1,1,41.8,0,41.2z"/>
<path d="M43.7,25.2l0.7-2.2c0.6,0.5,1.2,1,1.6,1.3c1.3,0.9,2.9,1.4,4.5,1.4c1.9,0,3.4-0.6,4.5-1.8c0.9-1,1.4-2.2,1.4-3.6
	c0-1.7-0.7-3.1-2-4.2c-0.6-0.5-1.9-1.2-4.1-2.3c-2.2-1.1-3.7-2.1-4.6-3C44.5,9.6,44,8.3,44,6.6c0-1.3,0.4-2.5,1.2-3.6
	c1.5-2,3.8-3,6.9-3c1.8,0,3.7,0.4,5.6,1.3L57,3.1c-1.9-1.2-3.7-1.8-5.3-1.8c-1.7,0-3,0.5-4,1.6c-0.8,0.9-1.2,1.9-1.2,3.1
	c0,1.2,0.4,2.2,1.2,3c0.8,0.8,2.3,1.8,4.5,2.9c1.5,0.7,2.6,1.3,3.3,1.8c0.7,0.4,1.2,0.9,1.7,1.4c1.3,1.4,1.9,2.9,1.9,4.7
	c0,1.3-0.4,2.6-1.1,3.8c-1.5,2.4-4,3.6-7.3,3.6C48.1,27.1,45.9,26.5,43.7,25.2 M3.2,13.5h3.1c1.5,0,2.8-0.2,3.7-0.6
	c1-0.4,1.8-1.1,2.4-2c0.6-1,0.9-2.1,0.9-3.4c0-1.8-0.6-3.2-1.8-4.3c-1.2-1-2.8-1.6-4.8-1.6H3.1L3.2,13.5L3.2,13.5z M31.7,12.4h8
	c-0.1,0.4-0.1,0.9-0.1,1.2v10.2c0,0.5,0.1,1,0.3,1.4c-2.1,0.7-3.7,1.2-4.9,1.5c-1.2,0.2-2.5,0.4-3.9,0.4c-3.8,0-6.7-1.2-8.9-3.5
	c-2.3-2.6-3.5-5.9-3.5-10.1c0-4.5,1.4-8,4.2-10.5c2.2-2,5.2-2.9,8.9-2.9c1.2,0,2.3,0.1,3.4,0.3c1,0.2,2.3,0.6,3.7,1.2v2.3
	c-2.6-1.5-5.1-2.3-7.5-2.3c-2.8,0-5.1,0.9-6.9,2.8c-1.1,1.1-1.8,2.3-2.2,3.7c-0.5,1.7-0.8,3.5-0.8,5.6c0,1.4,0.2,2.8,0.5,4.2
	s0.7,2.5,1.2,3.3c1,1.8,2.5,3.1,4.5,3.8c1.3,0.5,2.6,0.7,4.1,0.7c1.9,0,3.7-0.5,5.5-1.4v-11h-5.4L31.7,12.4L31.7,12.4z M3.2,14.7
	v10.9c0,0.4,0,0.8,0.1,1.2H0.5c0.1-0.4,0.1-0.8,0.1-1.2V1.7c0-0.4,0-0.8-0.1-1.3h7c1.8,0,3.4,0.4,4.9,1.1c2.3,1.2,3.5,3.1,3.5,5.7
	c0,2.1-0.7,3.8-2.2,5.1c-1.7,1.5-4.1,2.3-7.2,2.3L3.2,14.7L3.2,14.7z"/>
<rect x="62.2" y="0.6" width="15.8" height="25.9"/>
</svg>
